<svg id="Layer_1" data-name="Layer 1" xmlns="http://www.w3.org/2000/svg" xmlns:xlink="http://www.w3.org/1999/xlink" viewBox="0 0 1455 1455"><defs><style>.cls-1{fill:none;}.cls-2{clip-path:url(#clip-path);}</style><clipPath id="clip-path"><circle class="cls-1" cx="727.5" cy="727.5" r="517.44"/></clipPath></defs><g class="cls-2"><path d="M535,762.59H516.23c-10.39,0-20.59-8.83-28.72-24.88-6.61-13-10.71-28.55-10.71-40.5,0-7.58,0-20.25,4-31.66,5.37-15.39,16.35-23.52,31.75-23.52,22.57,0,43.13,20.74,43.13,43.51a7,7,0,0,1-14,0c0-15.17-14.16-29.51-29.13-29.51-9.4,0-15.12,4.36-18.53,14.13-3.2,9.17-3.2,20.36-3.2,27,0,20.65,15.21,51.38,25.43,51.38H535a7,7,0,0,1,0,14Z"/><path d="M909.1,762.59H890.37a7,7,0,0,1,0-14H909.1c10.22,0,25.43-30.73,25.43-51.37,0-6.69,0-17.87-3.2-27-3.41-9.78-9.12-14.13-18.53-14.13-15,0-29.13,14.34-29.13,29.51a7,7,0,0,1-14,0c0-22.77,20.56-43.51,43.13-43.51,15.4,0,26.38,8.13,31.75,23.52,4,11.41,4,24.08,4,31.65,0,11.95-4.1,27.46-10.71,40.5C929.69,753.75,919.49,762.59,909.1,762.59Z"/><path d="M715,1353l-318.8-64.45-80-127,1-3.12c2-6.22,20.08-61.22,34.62-76.7,43.5-46.32,217.34-115.19,224.72-118.1a7,7,0,0,1,5.14,13c-1.78.7-178.28,70.62-219.65,114.66-9.88,10.52-24.47,50.29-30.49,68.32L404.8,1276,714,1338.52l405.37-138.33c-11.26-22.69-47.12-93.11-67.74-112.52C1014.52,1052.74,867.48,992.4,866,991.8a7,7,0,1,1,5.3-13c6.14,2.51,150.94,61.94,189.94,98.63,26.45,24.89,72.31,119.71,74.25,123.73l3.43,7.11Z"/><path d="M462.9,667.56a65.79,65.79,0,0,1-43.5-17c-12.61-11.4-19.55-26.31-19.55-42a58.9,58.9,0,0,1,35.21-54,45.45,45.45,0,0,1,15.33-61.82c-14.08-21.69-15.63-52.19-3.54-80.32,13.94-32.41,43.3-53.75,72.29-53.75l1.67,0a58.8,58.8,0,0,1,68.16-49,89.22,89.22,0,0,1,122.8-57.18A123.47,123.47,0,0,1,906,295.76c45,9.12,77.29,45.17,77.29,87a81.89,81.89,0,0,1-8.39,36c24.78,12.69,41.5,42.76,41.5,76.2a95.49,95.49,0,0,1-13.07,48.87,54.62,54.62,0,0,1-31.12,96.41l-10.14,15.67a7,7,0,1,1-11.76-7.6l12.12-18.73a7,7,0,0,1,5.88-3.2,40.62,40.62,0,0,0,21.75-74.92,7,7,0,0,1-1.92-10c9.19-12.72,14.25-29.23,14.25-46.48,0-30.87-16.3-58.09-39.63-66.2a7,7,0,0,1-3.67-10.27,68.37,68.37,0,0,0,10.2-35.68c0-36.16-29.19-67.24-69.42-73.92a7,7,0,0,1-5.35-4.29,109.47,109.47,0,0,0-176.79-38.65,7,7,0,0,1-8.06,1.12,74.3,74.3,0,0,0-34.83-8.55A75.27,75.27,0,0,0,601,319.44a7,7,0,0,1-8.95,5.36,44.78,44.78,0,0,0-58,41.61,7,7,0,0,1-8.11,6.73c-25.53-4.09-53.42,14.73-66.33,44.74-11.21,26.07-8.55,55.31,6.63,72.76a7,7,0,0,1-2.9,11.18,31.43,31.43,0,0,0-12,51.32,7,7,0,0,1-3.38,11.65,44.93,44.93,0,0,0-34.28,43.74c0,24,22.92,45.05,49.05,45.05a7,7,0,0,1,0,14Z"/><path d="M510.11,633.56a7,7,0,0,1-3.06-13.3c10.31-5,17-16.33,17-28.89a34.27,34.27,0,0,0-4-16.18A7,7,0,0,1,525,565c19.21-3.28,37.63-20.75,46.94-44.5a89.27,89.27,0,0,0,6-41,7,7,0,0,1,8-7.59c14.93,2.29,30.08-5.2,38.58-19.08a7,7,0,0,1,10.73-1.47A64.13,64.13,0,0,0,678.86,469a61.59,61.59,0,0,0,18.84-3,7,7,0,0,1,8,2.87c18.59,28.82,48.79,46,80.77,46a90.43,90.43,0,0,0,37-7.9,7,7,0,0,1,6.38.36,78.73,78.73,0,0,0,47.27,10.3,7,7,0,0,1,7.34,9.11,92.14,92.14,0,0,0-4.31,28.2c0,28.2,12,53.23,30.56,63.77a7,7,0,1,1-6.91,12.17c-22.87-13-37.65-42.79-37.65-75.94A108.11,108.11,0,0,1,868.58,532a92.53,92.53,0,0,1-42.68-10.84,104.2,104.2,0,0,1-39.43,7.72c-35.12,0-68.26-17.89-89.62-48.12a75.46,75.46,0,0,1-18,2.18,77.4,77.4,0,0,1-47.08-16.22,52.85,52.85,0,0,1-39.48,19.59A104.58,104.58,0,0,1,585,525.6c-9.92,25.31-28.3,44.17-49.22,51.09A48.78,48.78,0,0,1,538,591.38c0,17.89-9.76,34.18-24.87,41.49A7.17,7.17,0,0,1,510.11,633.56Z"/><path d="M711.69,887c-38.59,0-76.22-12.37-108.81-35.78-31.53-22.65-57.23-54.71-74.3-92.71l12.77-5.74C574.68,826.88,640,873,711.7,873c35.76,0,70.67-11.54,100.93-33.36,29.6-21.35,53.72-51.63,69.73-87.58l12.79,5.7c-17,38.2-42.72,70.44-74.33,93.23C788.14,874.5,750.41,887,711.69,887Z"/><path d="M711.69,880C677,880,644.38,869.66,616,851.58l-5,.13s32.73,75.23,207.25,75.23v-80.6l-3.18.08C784.94,867.69,749.55,880,711.69,880Z"/><path d="M711.69,887c-38.59,0-76.22-12.37-108.81-35.78-31.53-22.65-57.23-54.71-74.3-92.71l12.77-5.74C574.68,826.88,640,873,711.7,873c35.76,0,70.67-11.54,100.93-33.36,29.6-21.35,53.72-51.63,69.73-87.58l12.79,5.7c-17,38.2-42.72,70.44-74.33,93.23C788.14,874.5,750.41,887,711.69,887Z"/><path d="M732.37,1003A7,7,0,0,1,731,989.14c37.78-7.71,74.42-62.47,80.29-71.58V857.41C780.89,876.77,746.66,887,711.69,887a184.43,184.43,0,0,1-96.52-27.63v57.8c9,13.55,43.27,61.8,78.62,69a7,7,0,0,1-2.8,13.72c-18.23-3.72-37.67-16.35-57.77-37.54A287,287,0,0,1,602.31,923l-1.13-1.74v-82h9.22l1.82,1.28C642.14,861.77,676.54,873,711.7,873s69.55-11.18,99.48-32.33l1.82-1.28h12.29v112l-8.24-17.27c-14,19.84-47,61.38-83.25,68.78A6.56,6.56,0,0,1,732.37,1003Z"/><path d="M718.76,1100.06c-5.25,0-11.83-.31-20.14-.83-3.14-.2-5.86-.36-7.06-.36a7,7,0,0,1-3.92-1.2c-.93-.63-22.84-16-20.63-65.07a7,7,0,0,1,7-6.68h71.33a7,7,0,0,1,6.81,5.37c.33,1.38,7.83,34.17-14.61,63.81C734.8,1098.72,729.7,1100.06,718.76,1100.06Zm-23.18-13.92h0Zm-1.31-1.18c1.42.07,3.16.18,5.22.31,5.77.36,22.68,1.41,27.72.26,12.67-17.51,12.89-36.54,12.08-45.6H680.87c.06,17.47,3.65,28.76,6.85,35.36A35.67,35.67,0,0,0,694.27,1085Zm33.69.34Z"/><path d="M714.48,1352.78a7.28,7.28,0,0,1-1.39-.14l-50.8-10.27a7,7,0,0,1-5.57-7.66l27.88-243.63a7,7,0,0,1,13.91,1.59l-27.15,237.25,42.64,8.62L756.59,1324,725,1091.81a7,7,0,1,1,13.87-1.89l32.36,237.9a7,7,0,0,1-4.68,7.57l-49.84,17A6.65,6.65,0,0,1,714.48,1352.78Z"/><path d="M647.85,1318.2A7,7,0,0,1,642,1315c-21.54-33-91.15-302.81-94.1-314.28a7,7,0,1,1,13.55-3.49c20,77.51,75.42,284.33,92.26,310.12a7,7,0,0,1-5.84,10.82Z"/><path d="M784.65,1311.2a7,7,0,0,1-5.85-10.83c16-24.54,68.88-221.6,87.89-295.46a7,7,0,0,1,13.55,3.49c-2.81,10.93-69.17,268.15-89.73,299.63A7,7,0,0,1,784.65,1311.2Z"/><path d="M637.26,1072.13a7,7,0,0,1-5.13-2.24l-66.89-72.13a7,7,0,0,1-1.18-7.78l36.34-76.06a7,7,0,0,1,12.28-.64,273.14,273.14,0,0,0,25.55,33.8c19.67,22.15,38.88,35.66,55.55,39.06a7,7,0,0,1,5.53,5.9l5.53,39.92a7,7,0,1,1-13.86,1.92l-4.88-35.23c-34.33-9.9-65-48.64-78.38-67.59l-29,60.66,57.38,61.87,30.9-50.51a7,7,0,0,1,11.94,7.3l-35.72,58.39a7,7,0,0,1-5.28,3.31A4,4,0,0,1,637.26,1072.13Z"/><path d="M787.49,1075.13l-.7,0a7,7,0,0,1-5.28-3.31l-35.72-58.39a7,7,0,0,1,11.94-7.3l30.9,50.51L846,994.74l-29-60.66c-13.36,19-44.19,57.86-78.61,67.66l-6.11,32.49a7,7,0,0,1-13.76-2.58l6.94-36.92a7,7,0,0,1,5.48-5.56c16.71-3.41,36-17,55.7-39.23a272.3,272.3,0,0,0,25.41-33.64,7,7,0,0,1,12.28.64L860.69,993a7,7,0,0,1-1.18,7.78l-66.89,72.13A7,7,0,0,1,787.49,1075.13Z"/></g><path d="M727.5,1254.94a525.81,525.81,0,1,1,205.31-41.45A524.3,524.3,0,0,1,727.5,1254.94Zm0-1034.88A505.82,505.82,0,1,0,925,259.93,504.35,504.35,0,0,0,727.5,220.06Z"/></svg>