<svg id="Layer_1" data-name="Layer 1" xmlns="http://www.w3.org/2000/svg" xmlns:xlink="http://www.w3.org/1999/xlink" viewBox="0 0 1455 1455"><defs><style>.cls-1{fill:none;}.cls-2{clip-path:url(#clip-path);}</style><clipPath id="clip-path"><circle class="cls-1" cx="727.5" cy="727.5" r="517.44"/></clipPath></defs><g class="cls-2"><path d="M535,710.22H516.23c-10.39,0-20.59-8.83-28.72-24.88-6.61-13-10.71-28.55-10.71-40.5,0-7.58,0-20.25,4-31.66,5.37-15.39,16.35-23.52,31.75-23.52,22.57,0,43.13,20.74,43.13,43.51a7,7,0,0,1-14,0c0-15.17-14.16-29.51-29.13-29.51-9.4,0-15.12,4.36-18.53,14.13-3.2,9.17-3.2,20.36-3.2,27,0,20.65,15.21,51.38,25.43,51.38H535a7,7,0,0,1,0,14Z"/><path d="M909.1,710.22H890.37a7,7,0,0,1,0-14H909.1c10.22,0,25.43-30.73,25.43-51.37,0-6.69,0-17.88-3.2-27.05-3.41-9.77-9.12-14.13-18.53-14.13-15,0-29.13,14.34-29.13,29.51a7,7,0,0,1-14,0c0-22.77,20.56-43.51,43.13-43.51,15.4,0,26.38,8.13,31.75,23.52,4,11.41,4,24.08,4,31.65,0,11.95-4.1,27.47-10.71,40.5C929.68,701.39,919.49,710.22,909.1,710.22Z"/><path d="M715,1300.64l-318.81-64.45-80.05-127,1-3.12c2-6.22,20.08-61.22,34.62-76.7,43.5-46.32,217.34-115.19,224.72-118.1a7,7,0,0,1,5.14,13C579.8,925,403.3,994.93,361.93,1039c-9.88,10.52-24.47,50.29-30.49,68.32l73.35,116.35L714,1286.15l405.37-138.33c-11.26-22.69-47.12-93.11-67.74-112.52C1014.52,1000.37,867.47,940,866,939.43a7,7,0,1,1,5.3-13c6.15,2.51,150.94,61.94,189.94,98.63,26.45,24.89,72.31,119.71,74.25,123.73l3.43,7.11Z"/><path d="M809.76,577a7,7,0,0,1-2.56-.49c-37.91-14.91-89.45-42-119.75-86.42-18.56-27.21-20.35-48.1-20.42-49A7,7,0,0,1,681,440c0,.38,1.88,18.91,18.65,43.09,15.68,22.61,48,54.91,112.69,80.38A7,7,0,0,1,809.76,577Z"/><path d="M492,606.75a7,7,0,0,1-6.3-4c-.92-1.9-22.51-47.46-22.51-123.78,0-27.13,0-64.28,14.19-95.21,16.83-36.67,49.78-55.67,98-56.49,41.27-47.73,116.3-53,147-53,43.56,0,81.22,6.59,111.92,19.59,28.65,12.13,52.15,30.2,69.86,53.71,29.84,39.62,44.34,95.47,44.34,170.73,0,16.7-4.83,64.82-5,66.86a7,7,0,0,1-8.25,6.18C867.11,578.68,817.77,556.34,788.6,525c-22.65-24.32-24.13-45.23-24.18-46.11a7,7,0,0,1,14-.87c0,.46,1.73,17.87,21.46,38.5,32.08,33.56,87.2,50.86,130.44,59.65,1.39-14.51,4.22-45.66,4.22-57.81,0-72.11-13.58-125.2-41.53-162.31-16.2-21.52-37.78-38.09-64.13-49.24-29-12.26-64.79-18.48-106.47-18.48-29.27,0-101.35,4.91-138.32,50.35a7,7,0,0,1-5.43,2.58c-44.64,0-73.6,15.82-88.53,48.36-12.92,28.15-12.92,63.54-12.92,89.37,0,72.87,20.91,117.25,21.12,117.69a7,7,0,0,1-3.27,9.34A6.82,6.82,0,0,1,492,606.75Z"/><path d="M546.05,593.54a7,7,0,0,1-7-7c0-40.69,9.75-51.19,18.35-60.46a54.07,54.07,0,0,0,6.27-7.65c5.82-9.14,17-19.25,28.73-29.95,16.87-15.33,37.86-34.41,37.86-47.92a7,7,0,1,1,14,0c0,19.71-21.58,39.32-42.45,58.28-11.07,10.06-21.52,19.55-26.34,27.11a64.93,64.93,0,0,1-7.82,9.65c-7.51,8.1-14.61,15.74-14.61,50.94A7,7,0,0,1,546.05,593.54Z"/><path d="M711.63,849.63l-.84-.11c-50-6.39-96.68-25.89-131.49-54.91-33-27.51-51.92-60.83-51.92-91.4h14c0,26.41,17.09,55.8,46.88,80.64,32.59,27.17,76.4,45.51,123.46,51.67,102.71-11.89,171.63-77.91,171.63-132.31h14c0,32-19.41,66.13-53.26,93.58-35,28.38-81.74,47.11-131.63,52.74Z"/><path d="M711.68,842.58a263.94,263.94,0,0,1-89.81-28c19.94,22,72.34,60,196.39,60v-68C789.05,824.7,752.53,838,711.68,842.58Z"/><path d="M702.37,1019.77a7,7,0,0,1-6.92-6l-9.35-67.44c-34.33-9.9-65-48.64-78.38-67.59l-29,60.66,57.38,61.87L667,950.72A7,7,0,0,1,679,958l-35.72,58.39a7,7,0,0,1-11.11,1.1l-66.89-72.13a7,7,0,0,1-1.18-7.78l36.34-76.06a7,7,0,0,1,12.28-.64,273.14,273.14,0,0,0,25.55,33.8c19.67,22.15,38.88,35.66,55.55,39.06a7,7,0,0,1,5.53,5.9l10,72.13a7,7,0,0,1-6,7.89A5.2,5.2,0,0,1,702.37,1019.77Z"/><path d="M787.49,1022.76l-.69,0a7,7,0,0,1-5.28-3.31L745.8,961a7,7,0,0,1,11.94-7.3l30.9,50.51L846,942.37l-29-60.66c-13.36,19-44.19,57.86-78.61,67.66l-12.17,64.7a7,7,0,0,1-13.76-2.58l13-69.13A7,7,0,0,1,731,936.8c16.67-3.4,35.88-16.91,55.55-39.06a272.79,272.79,0,0,0,25.55-33.81,7,7,0,0,1,12.28.65l36.34,76.06a7,7,0,0,1-1.18,7.78l-66.89,72.13A7.06,7.06,0,0,1,787.49,1022.76Z"/><path d="M732.37,950.63A7,7,0,0,1,731,936.77c37.78-7.71,74.43-62.48,80.29-71.59V818.75c-29.44,16.2-63.34,26.78-98.8,30.78l-.84.09-.84-.11c-34.23-4.37-67-14.9-95.64-30.61v45.84c9,13.55,43.27,61.8,78.62,69a7,7,0,0,1-2.8,13.72c-18.23-3.72-37.67-16.35-57.77-37.54a287,287,0,0,1-30.91-39.28l-1.13-1.74V794.16l10.68,6.61c29.07,18,63.6,30,99.89,34.75,37.48-4.34,73-16.41,102.84-34.92L825.26,794V898.89L817,881.68c-14,19.84-47,61.39-83.26,68.79A5.63,5.63,0,0,1,732.37,950.63Z"/><path d="M702.38,1256.53a7,7,0,0,1-7-7V1031.77a7,7,0,0,1,14,0v217.76A7,7,0,0,1,702.38,1256.53Z"/><ellipse cx="726.47" cy="1055.96" rx="10.58" ry="15.21"/><ellipse cx="726.47" cy="1135.96" rx="10.58" ry="15.21"/><ellipse cx="726.47" cy="1215.96" rx="10.58" ry="15.21"/></g><path d="M727.5,1254.94a525.81,525.81,0,1,1,205.31-41.45A524.3,524.3,0,0,1,727.5,1254.94Zm0-1034.88A505.82,505.82,0,1,0,925,259.93,504.35,504.35,0,0,0,727.5,220.06Z"/></svg>