<svg id="Layer_1" data-name="Layer 1" xmlns="http://www.w3.org/2000/svg" xmlns:xlink="http://www.w3.org/1999/xlink" viewBox="0 0 1455 1455"><defs><style>.cls-1{fill:none;}.cls-2{clip-path:url(#clip-path);}</style><clipPath id="clip-path"><circle class="cls-1" cx="727.5" cy="727.5" r="517.44"/></clipPath></defs><g class="cls-2"><path d="M737.91,823.12c-21.83,0-54.37-13.07-87.06-35-32.25-21.6-57.1-46.51-66.48-66.65l-.65-1.41v-1.55c0-21.1-2.16-53.85-4.25-85.52-2.12-32.16-4.31-65.42-4.31-87.35a7,7,0,0,1,14,0c0,21.46,2.18,54.49,4.28,86.43,2,31.11,4.17,63.26,4.27,84.83,8.77,17.48,31.92,40.15,60.93,59.58,30,20.1,60.39,32.59,79.27,32.59,21.35,0,49.67-13,77.7-35.72,24.31-19.69,45.31-44.32,53.95-63.19.09-23.89,2.35-54.18,4.54-83.49,2.06-27.66,4-53.78,4-72.48a7,7,0,0,1,14,0c0,19.22-2,45.6-4.05,73.52-2.21,29.67-4.5,60.35-4.5,83.94v1.45l-.58,1.33C864.37,757.4,792,823.12,737.91,823.12ZM597.72,718.56Z"/><path d="M901.56,702.3c-7.66,0-24.26-3.77-26.13-4.2a7,7,0,0,1,3.14-13.64c6.46,1.49,18.41,3.85,23,3.85,18,0,32.58-23.12,32.58-51.55,0-21.21-10.11-33.88-19.89-33.88-12.26,0-23.83,22.59-26.92,30.5a7,7,0,0,1-13.05-5.07c1.57-4,16-39.43,40-39.43,16.43,0,33.89,16.78,33.89,47.88C948.14,673.51,927.68,702.3,901.56,702.3Z"/><path d="M563.63,702.3c-26.12,0-46.58-28.79-46.58-65.55,0-31.1,17.46-47.88,33.89-47.88,10.72,0,20.81,6.92,30,20.58a106.67,106.67,0,0,1,10,18.86,7,7,0,0,1-13,5.07h0c-3.09-7.91-14.66-30.5-26.92-30.5-9.78,0-19.89,12.67-19.89,33.88,0,28.42,14.62,51.55,32.58,51.55,4.57,0,16.53-2.36,23-3.85a7,7,0,0,1,3.14,13.64C587.89,698.53,571.29,702.3,563.63,702.3Z"/><path d="M583.79,597.3a7,7,0,0,1-5.43-11.41c90.95-112.19,150.13-163.51,150.71-164a7,7,0,0,1,10.25,1.21c.53.74,54.53,75,149.09,153.48a7,7,0,1,1-8.94,10.78C799.35,520.87,747.83,457.2,732.65,437.49c-16.6,15.25-69.25,65.73-143.41,157.22A7,7,0,0,1,583.79,597.3Z"/><path d="M737.91,816.12c-19.64,0-47.24-11.39-73.48-27.56.15.51,20.46,68.24,149.44,59.23L803.66,791C781.8,805.86,758.37,816.12,737.91,816.12Z"/><path d="M743.05,1278.41c-50.72,0-102.44-8.58-153.72-25.49a607,607,0,0,1-121.16-56c-67.17-40.21-106.7-79.86-108.35-81.53l-3.25-3.29,1.75-4.28c1.47-3.6,36.39-88.54,61.77-110.79,21.66-19,59.83-35.67,100.25-53.33,6.45-2.82,12.94-5.65,19.4-8.51a7,7,0,0,1,5.68,12.8c-6.48,2.87-13,5.72-19.46,8.54-39.4,17.21-76.61,33.47-96.63,51-17.95,15.74-45.09,74.69-56.23,101.2,10.83,10.26,47.66,43.51,102.63,76.37A592.34,592.34,0,0,0,594,1239.71c49.79,16.39,99.95,24.71,149.1,24.71,85,0,173.48-42.66,232.79-78.45a858.67,858.67,0,0,0,106.68-76.1c-8.11-27.29-28.83-88.61-45.88-105.29-19.4-19-57.66-36.63-98.17-55.31-48.67-22.45-99-45.65-120.89-74.1-10.1-13.12-16.71-52.72-19.45-72.29-16.95,10.28-38.89,20.24-60.22,20.24-17.24,0-41.16-8.12-66.82-22.52-.85,20.82-3.77,61.55-13.66,76a7,7,0,0,1-11.54-7.92c7.86-11.46,11.21-54.22,11.54-80.17l.16-12.35,10.51,6.47c27.35,16.85,52.8,26.52,69.81,26.52,17.42,0,38.79-8.27,61.82-23.91l9.59-6.52,1.29,11.53c2.75,24,10.09,66.06,18,76.4,19.8,25.72,68.53,48.19,115.66,69.93,41.64,19.2,81,37.34,102.1,58,24.34,23.82,49.73,112,50.8,115.74l1.21,4.24-3.3,2.92c-.45.4-46.17,40.68-111.85,80.34-38.64,23.33-76.58,41.94-112.77,55.29C825,1269.89,782.14,1278.41,743.05,1278.41Z"/><path d="M544,1037a7,7,0,0,1-7-6.92c0-2.3-3-231.29-24-383.52a6.65,6.65,0,0,1-.06-1.26c.42-9.68.55-21.28.69-33.56.63-56.22,1.49-133.22,28.93-197.85,15.25-35.92,37.33-63.95,65.61-83.31,32.93-22.54,75.15-34,125.49-34,60,0,109.06,20,145.76,59.34,19.86,21.31,36.13,48.42,48.36,80.58,9.71,25.53,16.91,54.29,21.4,85.5,7.45,51.73,5,92.21,4.76,95.72l-5.78,325.79a7,7,0,0,1-14-.24l5.78-326c0-.12,0-.25,0-.37,0-.41,2.79-41.67-4.68-93.25-12.37-85.44-42.79-133.21-66.14-158.25-33.94-36.4-79.53-54.86-135.49-54.86-47.47,0-87,10.61-117.58,31.53-26,17.83-46.44,43.81-60.63,77.23C529,481.43,528.2,556.83,527.59,611.88c-.14,12.13-.26,23.6-.67,33.38,17.87,130,22.7,314.92,23.77,369.15a452.2,452.2,0,0,0,41-44.73c24.27-30.43,54.53-77.33,60.89-127.91a7,7,0,1,1,13.89,1.75c-6.78,53.9-38.56,103.23-64,135.12-27.42,34.34-52.91,55.82-54,56.71A7,7,0,0,1,544,1037Z"/><path d="M544,1037a7,7,0,0,1-7-6.92c0-2.3-3-231.29-24-383.52a6.65,6.65,0,0,1-.06-1.26c.42-9.68.55-21.28.69-33.56.63-56.22,1.49-133.22,28.93-197.85,15.25-35.92,37.33-63.95,65.61-83.31,32.93-22.54,75.15-34,125.49-34,60,0,109.06,20,145.76,59.34,19.86,21.31,36.13,48.42,48.36,80.58,9.71,25.53,16.91,54.29,21.4,85.5,7.45,51.73,5,92.21,4.76,95.72l-5.78,325.79a7,7,0,0,1-14-.24l5.78-326c0-.12,0-.25,0-.37,0-.41,2.79-41.67-4.68-93.25-12.37-85.44-42.79-133.21-66.14-158.25-33.94-36.4-79.53-54.86-135.49-54.86-47.47,0-87,10.61-117.58,31.53-26,17.83-46.44,43.81-60.63,77.23C529,481.43,528.2,556.83,527.59,611.88c-.14,12.13-.26,23.6-.67,33.38,17.87,130,22.7,314.92,23.77,369.15a452.2,452.2,0,0,0,41-44.73c24.27-30.43,54.53-77.33,60.89-127.91a7,7,0,1,1,13.89,1.75c-6.78,53.9-38.56,103.23-64,135.12-27.42,34.34-52.91,55.82-54,56.71A7,7,0,0,1,544,1037Z"/><path d="M720.81,1008c-55.49,0-99.37-8.73-132.31-19.41a7,7,0,0,1,4.32-13.32c69.77,22.63,190.51,36.1,369.54-28.17a7,7,0,0,1,4.73,13.17C868.11,995.86,786.36,1008,720.81,1008Z"/></g><path d="M727.5,1254.94a525.81,525.81,0,1,1,205.31-41.45A524.3,524.3,0,0,1,727.5,1254.94Zm0-1034.88A505.82,505.82,0,1,0,925,259.93,504.35,504.35,0,0,0,727.5,220.06Z"/></svg>